<?xml version="1.0" encoding="utf-8"?><svg id="warning" image-rendering="optimizeQuality" baseProfile="basic" version="1.1" preserveAspectRatio="xMidYMid slice" x="0px" y="0px" width="100" height="100" xmlns="http://www.w3.org/2000/svg" viewBox="0 0 100 100" xmlns:xlink="http://www.w3.org/1999/xlink"><g id="Scene-1r1" overflow="visible"><g><g id="circle" transform="translate(49.95 49.95)" opacity="1"><animateTransform attributeName="transform" additive="replace" type="translate" dur="1.333s" keyTimes="0;.35;.55;.625;1" values="49.952,49.952;49.952,49.952;50.026,50.026;49.95,49.95;49.95,49.95" fill="freeze"/><animateTransform attributeName="transform" additive="sum" type="scale" dur="1.333s" keyTimes="0;.35;.55;.625;1" values=".047,.047;.047,.047;1.13,1.13;1,1;1,1" fill="freeze"/><animateTransform attributeName="transform" additive="sum" type="translate" dur="1.333s" keyTimes="0;.35;.55;.625;1" values="-1.1,-1.1;-1.1,-1.1;-.2,-.2;0,0;0,0" fill="freeze"/><animate attributeName="opacity" dur="1.333s" keyTimes="0;.35;.55;1" values=".5;.5;1;1" fill="freeze"/><path fill="#FFC048" stroke="none" d="M.05 -43.55L0 -43.55Q-18 -43.55 -30.8 -30.8 -43.55 -18.05 -43.55 0L-43.55 .05Q-43.55 18.1 -30.8 30.85 -18.05 43.6 0 43.6L.05 43.6Q18.1 43.6 30.85 30.85 43.6 18.1 43.6 .05L43.6 0Q43.6 -18.05 30.85 -30.8 18.1 -43.55 .05 -43.55Z"/></g><animate attributeName="display" fill="freeze" repeatCount="1" dur="1.333s" keyTimes="0;.35;1" values="none;inline;inline"/></g><g><g id="warning" transform="translate(49.95 50)" opacity="1"><animateTransform attributeName="transform" additive="replace" type="translate" dur="1.333s" keyTimes="0;.55;.65;.725;.775;.825;.875;.925;1" values="49.952,50.002;49.952,50.002;50.106,50.338;50.001,50.056;49.983,50.034;49.991,50.012;50.005,50.045;49.95,50;49.95,50" fill="freeze"/><animateTransform attributeName="transform" additive="sum" type="rotate" dur="1.333s" keyTimes="0;.55;.65;.725;.775;.825;.875;.925;1" values="0,0,0;0,0,0;2.001,0,0;8,0,0;-8,0,0;4,0,0;-2,0,0;0,0,0;0,0,0" fill="freeze"/><animateTransform attributeName="transform" additive="sum" type="scale" dur="1.333s" keyTimes="0;.55;.65;.725;.775;1" values=".05,.05;.05,.05;1.5,1.5;1.149,1.149;1,1;1,1" fill="freeze"/><animateTransform attributeName="transform" additive="sum" type="translate" dur="1.333s" keyTimes="0;.55;.65;.725;.775;.825;.875;.925;1" values="-2.05,-2.05;-2.05,-2.05;-.25,-.35;-.2,-.15;-.1,-.25;-.15,-.1;-.1,-.1;0,0;0,0" fill="freeze"/><animate attributeName="opacity" dur="1.333s" keyTimes="0;.55;.65;1" values=".5;.5;1;1" fill="freeze"/><path fill="#FFF" stroke="none" d="M4.65 20.15Q2.75 18.2 0 18.2 -2.75 18.2 -4.65 20.15 -6.6 22.05 -6.55 24.8 -6.55 27.55 -4.6 29.45 -2.7 31.35 .05 31.35 2.75 31.35 4.7 29.45 6.6 27.5 6.6 24.8L6.6 24.75Q6.6 22.05 4.65 20.15M8 -23.85Q7.8 -27.15 5.3 -29.35 2.85 -31.55 -.45 -31.35 -3.75 -31.1 -5.95 -28.65 -8.15 -26.2 -7.95 -22.9L-5.45 10.65Q-5.45 11 -5.2 11.25 -4.9 11.5 -4.55 11.5L4.6 11.5Q4.95 11.5 5.25 11.25 5.5 11 5.5 10.65L8 -22.9 8 -23.85Z"/></g><animate attributeName="display" fill="freeze" repeatCount="1" dur="1.333s" keyTimes="0;.55;1" values="none;inline;inline"/></g></g></svg>